<svg xmlns="http://www.w3.org/2000/svg" viewBox="0 0 979 160.8"><defs><style>.cls-1{fill:#3c4ca0;}</style></defs><g id="Layer_2" data-name="Layer 2"><g id="Layer_3" data-name="Layer 3"><path class="cls-1" d="M16.7,18.73a24.9,24.9,0,0,1,7.74-5.39,23.17,23.17,0,0,1,9.45-1.95,22.49,22.49,0,0,1,6.37.89,26.43,26.43,0,0,1,5.8,2.49,1,1,0,0,0,1.26-.3c.67-1,1.37-2.05,2.09-3.06s1.47-2.06,2.16-3.12A.93.93,0,0,0,51.26,7a36.05,36.05,0,0,0-8.21-3.52,33.65,33.65,0,0,0-9.16-1.24A32.5,32.5,0,0,0,20.68,4.93a35.06,35.06,0,0,0-10.76,7.3A34.5,34.5,0,0,0,2.65,23.05a34.33,34.33,0,0,0,0,26.45,34.14,34.14,0,0,0,18,18,33.4,33.4,0,0,0,13.2,2.66,32.41,32.41,0,0,0,9.17-1.28,37.75,37.75,0,0,0,8.1-3.47.94.94,0,0,0,.45-.6,1,1,0,0,0-.14-.75L47.31,58a1,1,0,0,0-1.26-.29A23.64,23.64,0,0,1,33.89,61a23.3,23.3,0,0,1-9.45-1.94,25.67,25.67,0,0,1-7.75-5.3,24.75,24.75,0,0,1-5.24-7.88,25.12,25.12,0,0,1,0-19.19A25.37,25.37,0,0,1,16.7,18.73Z"/><path class="cls-1" d="M124.36,12.27A35.22,35.22,0,0,0,113.5,4.91a33.76,33.76,0,0,0-26.37,0,35,35,0,0,0-10.76,7.37,34.29,34.29,0,0,0-7.25,10.86,33.87,33.87,0,0,0,0,26.36,34,34,0,0,0,18,18,34.08,34.08,0,0,0,26.35,0,34.38,34.38,0,0,0,18.22-18,33.43,33.43,0,0,0,0-26.37A35.08,35.08,0,0,0,124.36,12.27Zm.51,24a24.47,24.47,0,0,1-7.14,17.47,25.58,25.58,0,0,1-7.8,5.3,24.13,24.13,0,0,1-19,0,25.15,25.15,0,0,1-7.79-5.29A25.08,25.08,0,0,1,77.9,26.65a25.32,25.32,0,0,1,5.26-7.87,25,25,0,0,1,7.78-5.34,24.15,24.15,0,0,1,19,0,24.92,24.92,0,0,1,13,13.21A24.72,24.72,0,0,1,124.87,36.29Z"/><path class="cls-1" d="M165.3,18.73a24.66,24.66,0,0,1,7.75-5.39,23,23,0,0,1,9.44-1.95,22.56,22.56,0,0,1,6.38.89,26,26,0,0,1,5.79,2.49,1,1,0,0,0,1.27-.31c.66-1,1.36-2,2.09-3.05s1.46-2.06,2.15-3.12a1,1,0,0,0,.13-.73.94.94,0,0,0-.44-.59,36.05,36.05,0,0,0-8.21-3.52,33.65,33.65,0,0,0-9.16-1.24,32.5,32.5,0,0,0-13.21,2.72,35.19,35.19,0,0,0-10.76,7.3,34.5,34.5,0,0,0-7.27,10.82,34.33,34.33,0,0,0,0,26.45,34,34,0,0,0,18,18,33.44,33.44,0,0,0,13.2,2.66,32.36,32.36,0,0,0,9.17-1.28,37.76,37.76,0,0,0,8.11-3.47.95.95,0,0,0,.3-1.35L195.92,58a1,1,0,0,0-1.26-.29A23.7,23.7,0,0,1,182.49,61,23.3,23.3,0,0,1,173,59.07a25.67,25.67,0,0,1-7.75-5.3,24.75,24.75,0,0,1-7.14-17.48,24.22,24.22,0,0,1,1.91-9.59A25.37,25.37,0,0,1,165.3,18.73Z"/><path class="cls-1" d="M273,12.27A35.44,35.44,0,0,0,262.1,4.91a33.76,33.76,0,0,0-26.37,0A35,35,0,0,0,225,12.28a34.63,34.63,0,0,0-7.25,10.86,34,34,0,0,0,0,26.36A34.12,34.12,0,0,0,225,60.26a34.47,34.47,0,0,0,10.76,7.27,34.1,34.1,0,0,0,26.36,0,34.44,34.44,0,0,0,18.23-18,33.54,33.54,0,0,0,0-26.37A35.43,35.43,0,0,0,273,12.27Zm-14.43,1.16a24.95,24.95,0,0,1,13,13.21,24.81,24.81,0,0,1-5.24,27.12,25.59,25.59,0,0,1-7.79,5.3,24.16,24.16,0,0,1-19,0,24.74,24.74,0,0,1-13-13.11,25.43,25.43,0,0,1,0-19.29,25.43,25.43,0,0,1,5.26-7.87,25,25,0,0,1,7.78-5.34,24.17,24.17,0,0,1,19,0Z"/><path class="cls-1" d="M313.91,18.72a24.91,24.91,0,0,1,7.75-5.38,23,23,0,0,1,9.43-1.95,22.53,22.53,0,0,1,6.39.9,25,25,0,0,1,5.78,2.48,1,1,0,0,0,1.27-.3c.66-1,1.37-2.05,2.1-3.06s1.46-2.06,2.15-3.12A1,1,0,0,0,348.47,7a36.08,36.08,0,0,0-8.21-3.51,33.3,33.3,0,0,0-9.17-1.23,32.55,32.55,0,0,0-13.2,2.71,34.19,34.19,0,0,0-18,18.12,34.21,34.21,0,0,0,0,26.45,34.08,34.08,0,0,0,18,18,33.11,33.11,0,0,0,13.2,2.65,31.88,31.88,0,0,0,9.18-1.29,37.3,37.3,0,0,0,8.09-3.44,1,1,0,0,0,.47-.82V46.35a8.74,8.74,0,0,0-1-4.71c-.78-1.17-2.24-1.77-4.34-1.77H330.73a.94.94,0,0,0-1,.94v7.3a.94.94,0,0,0,1,.94h7.38a3,3,0,0,1,1,.12,4.37,4.37,0,0,1,.19,1.71v8.76a24.49,24.49,0,0,1-17.62-.57,25.7,25.7,0,0,1-7.76-5.3,25,25,0,0,1-5.25-27.08A25.9,25.9,0,0,1,313.91,18.72Z"/><path class="cls-1" d="M408.35,69.45a.94.94,0,0,0,.94-.94v-7.3a.94.94,0,0,0-.94-.94H375.88V3.9a1,1,0,0,0-.95-.95h-7.65a1,1,0,0,0-.95.95V68.51a1,1,0,0,0,.95.94Z"/><path class="cls-1" d="M471.21,12.27a35.32,35.32,0,0,0-10.87-7.36,33.8,33.8,0,0,0-26.37,0,35,35,0,0,0-10.76,7.37A34.63,34.63,0,0,0,416,23.14a33.87,33.87,0,0,0,0,26.36,34.29,34.29,0,0,0,7.25,10.76A34.63,34.63,0,0,0,434,67.53a34.1,34.1,0,0,0,26.36,0,34.38,34.38,0,0,0,18.22-18,33.43,33.43,0,0,0,0-26.37A35.43,35.43,0,0,0,471.21,12.27Zm.51,24a24.58,24.58,0,0,1-7.15,17.48,25.54,25.54,0,0,1-7.8,5.29,24.11,24.11,0,0,1-19,0A25,25,0,0,1,430,53.76a24.42,24.42,0,0,1-7.15-17.47,24.46,24.46,0,0,1,1.9-9.64,24.92,24.92,0,0,1,13-13.21,24.12,24.12,0,0,1,19,0,24.92,24.92,0,0,1,13,13.21A24.58,24.58,0,0,1,471.72,36.29Z"/><path class="cls-1" d="M532.12,40.56A15.71,15.71,0,0,0,527.61,37a20.36,20.36,0,0,0-2.49-1.11,14,14,0,0,0,6.07-5.31,19.4,19.4,0,0,0,2.88-10.55,17.87,17.87,0,0,0-1.58-7.76,14,14,0,0,0-4.4-5.37,18.59,18.59,0,0,0-6.7-3,35.66,35.66,0,0,0-8.48-1H496a1,1,0,0,0-.95.95V68.51a1,1,0,0,0,.95.94h18.56a29.58,29.58,0,0,0,8-1.1,22.4,22.4,0,0,0,7-3.27,17.26,17.26,0,0,0,4.92-5.47,15.52,15.52,0,0,0,1.89-7.72,16.63,16.63,0,0,0-1.19-6.36A17.39,17.39,0,0,0,532.12,40.56Zm-27.5,0h8a24.47,24.47,0,0,1,5.42.61A14.84,14.84,0,0,1,522.59,43a9.59,9.59,0,0,1,3.08,3.16,8.38,8.38,0,0,1,1.15,4.49,8.22,8.22,0,0,1-1,4.15,9.52,9.52,0,0,1-2.72,3,12.92,12.92,0,0,1-4.1,1.84,20.22,20.22,0,0,1-5.11.61h-9.3Zm0-9.19V12.14h8.84a14,14,0,0,1,8.14,2.13c2,1.36,2.92,3.64,2.92,7a9.64,9.64,0,0,1-2.9,7.35c-1.94,1.87-4.56,2.77-8,2.77Z"/><path class="cls-1" d="M591.17,56.09q2.72,6.4,5.39,12.78a1,1,0,0,0,.87.58h7.67a.93.93,0,0,0,.78-.42.91.91,0,0,0,.08-.89l-19.14-45.2Q582.11,11.79,577.34.57a1,1,0,0,0-1.73,0l-14.29,33.8q-4.1,9.63-8.21,19.33L547,68.14a.91.91,0,0,0,.08.89,1,1,0,0,0,.79.42h7.65a.94.94,0,0,0,.87-.57l1.74-4.13q1.83-4.32,3.67-8.66L567,43.89h19C587.72,47.94,589.43,52,591.17,56.09Zm-9.1-21.39H570.88q1.57-3.74,3.23-7.43c.87-1.95,1.65-3.95,2.32-6,0,0,0,0,0,0,1,2.39,2,4.77,3.1,7.32C580.36,30.67,581.21,32.69,582.07,34.7Z"/><path class="cls-1" d="M630.13,60.27V3.9a1,1,0,0,0-1-.95h-7.65a1,1,0,0,0-.95.95V68.51a1,1,0,0,0,.95.94H662.6a.94.94,0,0,0,.94-.94v-7.3a.94.94,0,0,0-.94-.94Z"/><path class="cls-1" d="M745,.37q-8.49,11-16.89,21.92-7.85,10.23-15.78,20.47l-.37.49-5.38-7q-5.4-7-10.76-14Q687.41,11.36,678.92.37a.91.91,0,0,0-1-.31.94.94,0,0,0-.64.89V68.51a.94.94,0,0,0,.95.94h7.65a1,1,0,0,0,.95-.94l0-42.88q6,7.92,12.08,15.77,6.2,8,12.36,16.14a.95.95,0,0,0,1.5,0c4.45-5.81,9-11.59,13.47-17.2,3.82-4.77,7.5-9.71,11-14.72V68.51a.94.94,0,0,0,.94.94h7.66a.94.94,0,0,0,.94-.94V1A.94.94,0,0,0,746,.06.91.91,0,0,0,745,.37Z"/><path class="cls-1" d="M775,60.27V40.56h27.57a.94.94,0,0,0,.94-1V32.32a1,1,0,0,0-.94-.95H775V12.14h31.17a1,1,0,0,0,.95-1V3.9a1,1,0,0,0-.95-.95H766.42a1,1,0,0,0-.95.95V68.51a.94.94,0,0,0,.95.94h41.07a.94.94,0,0,0,.94-.94v-7.3a.94.94,0,0,0-.94-.94Z"/><path class="cls-1" d="M864.25,12a31.54,31.54,0,0,0-10.64-6.7A36,36,0,0,0,840.71,3h-15a1,1,0,0,0-.94.95V68.51a.94.94,0,0,0,.94.94h11.91a42.11,42.11,0,0,0,16.95-3.08,33.49,33.49,0,0,0,11.34-7.89,29.63,29.63,0,0,0,6.34-10.72,36.34,36.34,0,0,0,1.94-11.47,34.66,34.66,0,0,0-2.66-13.8A32.1,32.1,0,0,0,864.25,12Zm.36,24.22a24.82,24.82,0,0,1-1.91,9.92,22.46,22.46,0,0,1-13.08,12.36,28.11,28.11,0,0,1-9.82,1.7h-5.52v-48h5.52a28,28,0,0,1,9.81,1.68,23.21,23.21,0,0,1,7.86,4.84,22.76,22.76,0,0,1,5.23,7.58A25.13,25.13,0,0,1,864.61,36.2Z"/><rect class="cls-1" x="893.11" y="2.96" width="9.55" height="66.49" rx="0.94"/><path class="cls-1" d="M950.3.57a1,1,0,0,0-1.73,0L920,68.14A.91.91,0,0,0,920,69a1,1,0,0,0,.79.42h7.65a.93.93,0,0,0,.87-.57q2.67-6.37,5.41-12.79l5.16-12.2H959c1.71,4,3.42,8.12,5.16,12.2l5.39,12.79a.94.94,0,0,0,.87.57h7.67a.93.93,0,0,0,.78-.42.91.91,0,0,0,.08-.89ZM955,34.7H943.84q1.57-3.74,3.23-7.43c.87-1.95,1.65-3.95,2.32-6,0,0,0,0,0,0,1,2.39,2,4.77,3.1,7.32C953.33,30.67,954.17,32.69,955,34.7Z"/><path class="cls-1" d="M104.12,143c.55.66,1.06,1.3,1.55,1.91s1,1.24,1.5,1.9a13.46,13.46,0,0,1-3.7,2.05,12.6,12.6,0,0,1-4.45.77,12.78,12.78,0,0,1-5.08-1,13,13,0,0,1-4.13-2.79,13.42,13.42,0,0,1-2.79-4.1,12.69,12.69,0,0,1,0-10,13.09,13.09,0,0,1,2.79-4.08,13.59,13.59,0,0,1,4.13-2.76,12.77,12.77,0,0,1,5.08-1,13.07,13.07,0,0,1,4.54.76,14.58,14.58,0,0,1,3.79,2l-3.23,3.82a7.19,7.19,0,0,0-2.29-1.26,8.49,8.49,0,0,0-2.81-.44,8.26,8.26,0,0,0-3.23.61,8.11,8.11,0,0,0-2.55,1.67,7.37,7.37,0,0,0-1.67,2.5,8.62,8.62,0,0,0,0,6.27,7.55,7.55,0,0,0,1.67,2.52,7.7,7.7,0,0,0,2.55,1.7,8.09,8.09,0,0,0,3.23.62,8.76,8.76,0,0,0,2.81-.44A7.19,7.19,0,0,0,104.12,143Z"/><path class="cls-1" d="M127.11,136.69a12.17,12.17,0,0,1,1-5,12.9,12.9,0,0,1,2.78-4.08,13.64,13.64,0,0,1,4.14-2.76,13.41,13.41,0,0,1,10.26,0,13.26,13.26,0,0,1,4.11,2.76,12.52,12.52,0,0,1,2.7,4.08,13.42,13.42,0,0,1,0,10,12.83,12.83,0,0,1-2.7,4.1,12.68,12.68,0,0,1-4.11,2.79,13,13,0,0,1-5.19,1,13.76,13.76,0,0,1-5.07-.94,12.64,12.64,0,0,1-4.14-2.64,12.36,12.36,0,0,1-2.78-4.08A13,13,0,0,1,127.11,136.69Zm5,.06a7.73,7.73,0,0,0,.61,3.08,7.94,7.94,0,0,0,4.23,4.22,7.52,7.52,0,0,0,3.07.62,8,8,0,0,0,5.66-2.32,8.2,8.2,0,0,0,1.73-2.52,7.43,7.43,0,0,0,.65-3.08,7.67,7.67,0,0,0-.65-3.11,8.34,8.34,0,0,0-1.73-2.55,8,8,0,0,0-5.66-2.31,7.68,7.68,0,0,0-3.07.61,7.86,7.86,0,0,0-4.23,4.25A8,8,0,0,0,132.1,136.75Z"/><path class="cls-1" d="M176,124.49h4.4c.07,1.22.14,2.32.2,3.32s.13,2,.21,3a13.27,13.27,0,0,1,3.54-5,9.15,9.15,0,0,1,5.9-1.9,8.69,8.69,0,0,1,5.75,1.82,7.09,7.09,0,0,1,2.52,4.75,13.92,13.92,0,0,1,3.61-4.75,9,9,0,0,1,5.77-1.82,8.47,8.47,0,0,1,6,2.05,7.31,7.31,0,0,1,2.31,5.28V149h-5V133.47a5.27,5.27,0,0,0-1.26-3.2,5,5,0,0,0-3.73-1.44,7,7,0,0,0-5.51,2.26,8.89,8.89,0,0,0-2.11,5.78V149h-5V133.47a4.72,4.72,0,0,0-5-4.64,7.83,7.83,0,0,0-3.17.62,7.09,7.09,0,0,0-3.93,4.19,9.56,9.56,0,0,0-.53,3.23V149h-5Z"/><path class="cls-1" d="M263.48,149.54h-4.23l-.58-6.81a13,13,0,0,1-3.78,4.93,9.66,9.66,0,0,1-6.19,1.94,8.46,8.46,0,0,1-6-2,7.26,7.26,0,0,1-2.31-5.3V124.49h5V140a4.91,4.91,0,0,0,1.32,3.11,5.43,5.43,0,0,0,3.73,1.46,8.25,8.25,0,0,0,3.22-.61,7.62,7.62,0,0,0,2.52-1.68,7.26,7.26,0,0,0,1.65-2.52,8.58,8.58,0,0,0,.58-3.22V124.49h5.05Z"/><path class="cls-1" d="M288.11,124.49h4.4c.08,1.22.15,2.32.21,3.32s.12,2,.2,3a12.09,12.09,0,0,1,3.84-5,9.85,9.85,0,0,1,6.13-1.88,8.4,8.4,0,0,1,5.93,2.05,7.26,7.26,0,0,1,2.34,5.28V149h-5V133.47a5.18,5.18,0,0,0-1.29-3.2,5.07,5.07,0,0,0-3.7-1.44,8.21,8.21,0,0,0-3.22.62,7.58,7.58,0,0,0-4.2,4.19,8.3,8.3,0,0,0-.61,3.23V149h-5Z"/><path class="cls-1" d="M334.92,115.11a3.07,3.07,0,0,1,1-2.35,3.26,3.26,0,0,1,2.2-.94,3.13,3.13,0,0,1,2.17.94,3.08,3.08,0,0,1,1,2.35,3,3,0,0,1-1,2.32,3.19,3.19,0,0,1-2.17.91,3.31,3.31,0,0,1-2.2-.91A3,3,0,0,1,334.92,115.11Zm5.63,33.9h-5V124.49h5Z"/><path class="cls-1" d="M381.6,143c.55.66,1.07,1.3,1.56,1.91s1,1.24,1.49,1.9a13.26,13.26,0,0,1-3.69,2.05,13.13,13.13,0,0,1-9.53-.26,12.91,12.91,0,0,1-4.14-2.79,13.22,13.22,0,0,1-2.78-4.1,12.58,12.58,0,0,1,0-10,12.9,12.9,0,0,1,2.78-4.08,13.52,13.52,0,0,1,4.14-2.76,12.69,12.69,0,0,1,5.07-1,13.13,13.13,0,0,1,4.55.76,14.68,14.68,0,0,1,3.78,2l-3.23,3.82a7,7,0,0,0-2.28-1.26,8.55,8.55,0,0,0-2.82-.44,8.11,8.11,0,0,0-5.78,2.28,7.37,7.37,0,0,0-1.67,2.5,8.62,8.62,0,0,0,0,6.27,7.55,7.55,0,0,0,1.67,2.52,7.91,7.91,0,0,0,2.55,1.7,8.12,8.12,0,0,0,3.23.62,8.82,8.82,0,0,0,2.82-.44A7,7,0,0,0,381.6,143Z"/><path class="cls-1" d="M404.59,137a12.78,12.78,0,0,1,1-5.08,13.34,13.34,0,0,1,2.79-4.16,13.71,13.71,0,0,1,4.07-2.85,11.9,11.9,0,0,1,5-1.05,11.24,11.24,0,0,1,3.22.44,10.76,10.76,0,0,1,2.53,1.08,7.89,7.89,0,0,1,1.7,1.35,5,5,0,0,1,.88,1.23l.23-3.46h4.81V149h-5V145.9a6.68,6.68,0,0,1-.94,1.12,7.25,7.25,0,0,1-1.67,1.2,13,13,0,0,1-2.44,1,11.65,11.65,0,0,1-3.22.41,13,13,0,0,1-5.19-1,12.46,12.46,0,0,1-4.08-2.76,12.91,12.91,0,0,1-2.67-4A12.34,12.34,0,0,1,404.59,137Zm5.05-.3a8.1,8.1,0,0,0,.61,3.17,7.66,7.66,0,0,0,4.2,4.19,8,8,0,0,0,3.22.62,8.31,8.31,0,0,0,3.26-.62,7.63,7.63,0,0,0,2.58-1.7,7.55,7.55,0,0,0,1.67-2.52,8.62,8.62,0,0,0,0-6.27,7.37,7.37,0,0,0-1.67-2.5,8,8,0,0,0-2.58-1.67,8.48,8.48,0,0,0-3.26-.61,8.21,8.21,0,0,0-3.22.61,7.76,7.76,0,0,0-2.52,1.67,7.82,7.82,0,0,0-2.29,5.63Z"/><path class="cls-1" d="M471.87,143c.55.66,1.06,1.3,1.55,1.91s1,1.24,1.5,1.9a13.46,13.46,0,0,1-3.7,2.05,12.64,12.64,0,0,1-4.45.77,12.78,12.78,0,0,1-5.08-1,13.19,13.19,0,0,1-6.92-6.89,12.58,12.58,0,0,1,0-10,12.76,12.76,0,0,1,2.79-4.08,13.59,13.59,0,0,1,4.13-2.76,12.77,12.77,0,0,1,5.08-1,13.07,13.07,0,0,1,4.54.76,14.36,14.36,0,0,1,3.78,2l-3.22,3.82a7.19,7.19,0,0,0-2.29-1.26,8.49,8.49,0,0,0-2.81-.44,8.26,8.26,0,0,0-3.23.61,8.11,8.11,0,0,0-2.55,1.67,7.23,7.23,0,0,0-1.67,2.5,8.62,8.62,0,0,0,0,6.27,7.4,7.4,0,0,0,1.67,2.52,7.7,7.7,0,0,0,2.55,1.7,8.09,8.09,0,0,0,3.23.62,8.76,8.76,0,0,0,2.81-.44A7.19,7.19,0,0,0,471.87,143Z"/><path class="cls-1" d="M496.8,115.11a3.07,3.07,0,0,1,1-2.35,3.26,3.26,0,0,1,2.2-.94,3.13,3.13,0,0,1,2.17.94,3.08,3.08,0,0,1,1,2.35,3,3,0,0,1-1,2.32,3.19,3.19,0,0,1-2.17.91,3.31,3.31,0,0,1-2.2-.91A3,3,0,0,1,496.8,115.11Zm5.63,33.9h-5V124.49h5Z"/><path class="cls-1" d="M525.36,136.69a12.17,12.17,0,0,1,1-5,12.9,12.9,0,0,1,2.78-4.08,13.52,13.52,0,0,1,4.14-2.76,13.41,13.41,0,0,1,10.26,0,13.38,13.38,0,0,1,4.11,2.76,12.34,12.34,0,0,1,2.69,4.08,13.29,13.29,0,0,1,0,10,12.64,12.64,0,0,1-2.69,4.1,12.78,12.78,0,0,1-4.11,2.79,13,13,0,0,1-5.19,1,13.76,13.76,0,0,1-5.07-.94,12.53,12.53,0,0,1-4.14-2.64,12.36,12.36,0,0,1-2.78-4.08A13,13,0,0,1,525.36,136.69Zm5,.06a7.74,7.74,0,0,0,.62,3.08,8,8,0,0,0,1.7,2.52,7.78,7.78,0,0,0,2.52,1.7,7.6,7.6,0,0,0,3.08.62,8,8,0,0,0,5.66-2.32,8.2,8.2,0,0,0,1.73-2.52,7.43,7.43,0,0,0,.65-3.08,7.67,7.67,0,0,0-.65-3.11,8.34,8.34,0,0,0-1.73-2.55,7.86,7.86,0,0,0-2.55-1.7,8,8,0,0,0-3.11-.61,7.77,7.77,0,0,0-3.08.61,8,8,0,0,0-2.52,1.7,8.08,8.08,0,0,0-1.7,2.55A8,8,0,0,0,530.34,136.75Zm7.92-16.24c.9-1.3,1.8-2.6,2.7-3.93s1.8-2.64,2.7-3.93h5.39l-7,7.86Z"/><path class="cls-1" d="M574.27,124.49h4.4c.08,1.22.15,2.32.21,3.32s.13,2,.2,3a12,12,0,0,1,3.85-5,9.83,9.83,0,0,1,6.13-1.88A8.39,8.39,0,0,1,595,125.9a7.27,7.27,0,0,1,2.35,5.28V149h-5.05V133.47a5.18,5.18,0,0,0-1.29-3.2,5,5,0,0,0-3.69-1.44,8.27,8.27,0,0,0-3.23.62,7.6,7.6,0,0,0-4.19,4.19,8.3,8.3,0,0,0-.62,3.23V149h-5Z"/><path class="cls-1" d="M651.17,136.75a13.75,13.75,0,0,1,1-5.25,12.13,12.13,0,0,1,2.66-4.07,11.91,11.91,0,0,1,4-2.64,13.19,13.19,0,0,1,5-.94,11.19,11.19,0,0,1,5.72,1.49,7.84,7.84,0,0,1,1.73,1.38,9,9,0,0,1,1.05,1.35V103.44h5V149h-5v-1.82a5.91,5.91,0,0,1,.06-.79,5.59,5.59,0,0,0,.06-.73,11.23,11.23,0,0,1-1.38,1.38,11.08,11.08,0,0,1-1.85,1.26,10.34,10.34,0,0,1-2.43.94,14,14,0,0,1-8.39-.68,11.6,11.6,0,0,1-6.39-6.83A14.49,14.49,0,0,1,651.17,136.75Zm5-.06a8.11,8.11,0,0,0,.62,3.17,7.76,7.76,0,0,0,1.67,2.52,7.6,7.6,0,0,0,2.52,1.67,8.09,8.09,0,0,0,3.23.62,8.26,8.26,0,0,0,3.25-.62,7.63,7.63,0,0,0,2.58-1.7,7.4,7.4,0,0,0,1.67-2.52,8.62,8.62,0,0,0,0-6.27,7.23,7.23,0,0,0-1.67-2.5,8,8,0,0,0-2.58-1.67,8.43,8.43,0,0,0-3.25-.61,8.26,8.26,0,0,0-3.23.61,7.76,7.76,0,0,0-2.52,1.67,8,8,0,0,0-1.67,2.5A7.84,7.84,0,0,0,656.21,136.69Z"/><path class="cls-1" d="M701.37,115.11a3.08,3.08,0,0,1,1-2.35,3.24,3.24,0,0,1,2.2-.94,3.15,3.15,0,0,1,2.17.94,3.12,3.12,0,0,1,1,2.35,3,3,0,0,1-1,2.32,3.2,3.2,0,0,1-2.17.91,3.29,3.29,0,0,1-2.2-.91A3,3,0,0,1,701.37,115.11ZM707,149h-5V124.49h5Z"/><path class="cls-1" d="M730,136.81a13.07,13.07,0,0,1,3.69-9.24,12.45,12.45,0,0,1,4-2.72,12,12,0,0,1,4.87-1,10.82,10.82,0,0,1,3.55.53,11.33,11.33,0,0,1,2.61,1.23,9.21,9.21,0,0,1,1.67,1.38,8.31,8.31,0,0,1,.79,1,13.37,13.37,0,0,1,.12-1.73,15,15,0,0,0,.11-1.73h4.81V147.9q0,6.09-3.57,9.5T743,160.8a15,15,0,0,1-3.78-.44,14.63,14.63,0,0,1-3-1.14,14.12,14.12,0,0,1-2.53-1.65c-.76-.62-1.51-1.27-2.26-1.93l3.23-3.4a16.76,16.76,0,0,0,3.73,2.69,9.6,9.6,0,0,0,4.54,1,9,9,0,0,0,6.1-1.88,6.69,6.69,0,0,0,2.23-5.22v-1.7a4.85,4.85,0,0,1,.12-1,5.15,5.15,0,0,0,.11-.85,13.88,13.88,0,0,1-1.32,1.49,8.78,8.78,0,0,1-1.84,1.41,11.05,11.05,0,0,1-5.63,1.44,12.42,12.42,0,0,1-9-3.73,12.4,12.4,0,0,1-2.64-4A13.38,13.38,0,0,1,730,136.81Zm5-.12a8.11,8.11,0,0,0,.62,3.17,7.6,7.6,0,0,0,4.19,4.19,8.09,8.09,0,0,0,3.23.62,8.29,8.29,0,0,0,3.25-.62,7.63,7.63,0,0,0,2.58-1.7,7.55,7.55,0,0,0,1.67-2.52,8.62,8.62,0,0,0,0-6.27,7.37,7.37,0,0,0-1.67-2.5,8,8,0,0,0-2.58-1.67,8.47,8.47,0,0,0-3.25-.61,8.26,8.26,0,0,0-3.23.61,7.65,7.65,0,0,0-4.19,4.17A7.84,7.84,0,0,0,735,136.69Z"/><path class="cls-1" d="M780.2,115.11a3,3,0,0,1,1-2.35,3.24,3.24,0,0,1,2.2-.94,3.15,3.15,0,0,1,2.17.94,3.12,3.12,0,0,1,1,2.35,3,3,0,0,1-1,2.32,3.2,3.2,0,0,1-2.17.91,3.29,3.29,0,0,1-2.2-.91A3,3,0,0,1,780.2,115.11Zm5.63,33.9h-5V124.49h5Z"/><path class="cls-1" d="M812.58,113.7h5v10.85h6.57V129h-6.57v20h-5V129h-4.4v-4.46h4.4Z"/><path class="cls-1" d="M843.66,137a12.78,12.78,0,0,1,1-5.08,13.34,13.34,0,0,1,2.79-4.16,13.71,13.71,0,0,1,4.07-2.85,11.9,11.9,0,0,1,5-1.05,11.36,11.36,0,0,1,3.23.44,10.86,10.86,0,0,1,2.52,1.08,7.89,7.89,0,0,1,1.7,1.35,5,5,0,0,1,.88,1.23l.23-3.46h4.81V149h-5V145.9a6.68,6.68,0,0,1-.94,1.12,7.25,7.25,0,0,1-1.67,1.2,13,13,0,0,1-2.44,1,11.6,11.6,0,0,1-3.22.41,13,13,0,0,1-5.19-1,12.46,12.46,0,0,1-4.08-2.76,12.91,12.91,0,0,1-2.67-4A12.34,12.34,0,0,1,843.66,137Zm5.05-.3a8.1,8.1,0,0,0,.61,3.17,7.66,7.66,0,0,0,4.2,4.19,8,8,0,0,0,3.22.62,8.31,8.31,0,0,0,3.26-.62,7.63,7.63,0,0,0,2.58-1.7,7.55,7.55,0,0,0,1.67-2.52,8.62,8.62,0,0,0,0-6.27,7.37,7.37,0,0,0-1.67-2.5,8,8,0,0,0-2.58-1.67,8.48,8.48,0,0,0-3.26-.61,8.21,8.21,0,0,0-3.22.61,7.76,7.76,0,0,0-2.52,1.67,7.82,7.82,0,0,0-2.29,5.63Z"/><path class="cls-1" d="M899.56,149h-5V103.44h5Z"/></g></g></svg>